<svg width="40" height="40" viewBox="0 0 40 40" fill="none" xmlns="http://www.w3.org/2000/svg">
<path d="M20 1.32812C30.3125 1.32812 38.6562 9.67188 38.6562 19.9688C38.6562 30.2656 30.3125 38.625 20 38.625C9.6875 38.625 1.34375 30.2812 1.34375 19.9844C1.34375 9.6875 9.6875 1.32812 20 1.32812Z" fill="#8F8F8F"/>
<path d="M20 40C8.96875 40 0 31.0364 0 20.0078C0 8.96363 8.96875 0 20 0C31.0312 0 40 8.96363 40 19.9922C40 31.0207 31.0312 40 20 40ZM36.8594 22.7298C36.2812 22.542 31.5781 21.1498 26.2188 21.9945C28.4531 28.1267 29.3594 33.1326 29.5312 34.165C33.375 31.5839 36.1094 27.4853 36.8594 22.7298ZM26.6719 35.745C26.4219 34.2433 25.4219 29.0184 23.0312 22.7923C23 22.808 22.9531 22.8236 22.9219 22.8236C13.2812 26.1869 9.82813 32.8666 9.51563 33.4924C12.4063 35.745 16.0469 37.0903 20 37.0903C22.3594 37.106 24.625 36.621 26.6719 35.745ZM7.3125 31.4431C7.70312 30.7861 12.3906 23.027 21.2031 20.1643C21.4219 20.086 21.6563 20.0235 21.875 19.9609C21.4531 18.991 20.9844 18.0211 20.4844 17.0669C11.9531 19.6167 3.67188 19.5072 2.92188 19.4916C2.92188 19.6637 2.90625 19.8357 2.90625 20.0078C2.92188 24.4036 4.57812 28.4083 7.3125 31.4431ZM3.28125 16.5194C4.04688 16.535 11.0781 16.5663 19.0781 14.4388C16.25 9.40164 13.1875 5.17794 12.75 4.56785C7.95312 6.82049 4.39062 11.2319 3.28125 16.5194ZM16 3.41025C16.4688 4.03598 19.5781 8.25968 22.375 13.4063C28.4531 11.1224 31.0156 7.68088 31.3281 7.24286C28.3125 4.56785 24.3437 2.94095 20 2.94095C18.625 2.94095 17.2813 3.11302 16 3.41025ZM33.2188 9.21392C32.8594 9.69887 30 13.375 23.6875 15.9562C24.0781 16.7697 24.4687 17.5987 24.8281 18.4278C24.9531 18.7251 25.0781 19.0223 25.2031 19.3039C30.8906 18.5843 36.5312 19.7419 37.0937 19.8514C37.0469 15.8311 35.6094 12.1236 33.2188 9.21392Z" fill="#171516"/>
</svg>
