<svg width="25" height="24" viewBox="0 0 25 24" fill="none" xmlns="http://www.w3.org/2000/svg">
<path d="M14.1198 8.8C14.1198 8.7 14.1534 8.60417 14.2207 8.5125C14.2879 8.42083 14.3636 8.35833 14.4476 8.325C14.9519 8.14167 15.4688 8 15.9983 7.9C16.5278 7.8 17.0783 7.75 17.6498 7.75C18.0196 7.75 18.381 7.77083 18.734 7.8125C19.087 7.85417 19.4316 7.91667 19.7677 8C19.8686 8.03333 19.9611 8.09583 20.0451 8.1875C20.1291 8.27917 20.1712 8.38333 20.1712 8.5C20.1712 8.68333 20.1081 8.825 19.9821 8.925C19.856 9.025 19.7005 9.05 19.5156 9C19.2298 8.91667 18.9315 8.85417 18.6205 8.8125C18.3095 8.77083 17.986 8.75 17.6498 8.75C17.1623 8.75 16.6916 8.79583 16.2378 8.8875C15.7839 8.97917 15.3385 9.11667 14.9014 9.3C14.6661 9.38333 14.477 9.37917 14.3341 9.2875C14.1913 9.19583 14.1198 9.03333 14.1198 8.8ZM14.1198 14.3C14.1198 14.2 14.1534 14.1 14.2207 14C14.2879 13.9 14.3636 13.8333 14.4476 13.8C14.9519 13.6167 15.4688 13.4792 15.9983 13.3875C16.5278 13.2958 17.0783 13.25 17.6498 13.25C18.0196 13.25 18.381 13.2708 18.734 13.3125C19.087 13.3542 19.4316 13.4167 19.7677 13.5C19.8686 13.5333 19.9611 13.5958 20.0451 13.6875C20.1291 13.7792 20.1712 13.8833 20.1712 14C20.1712 14.1833 20.1081 14.325 19.9821 14.425C19.856 14.525 19.7005 14.55 19.5156 14.5C19.2298 14.4167 18.9315 14.3542 18.6205 14.3125C18.3095 14.2708 17.986 14.25 17.6498 14.25C17.1623 14.25 16.6916 14.2917 16.2378 14.375C15.7839 14.4583 15.3385 14.5917 14.9014 14.775C14.6661 14.8583 14.477 14.8583 14.3341 14.775C14.1913 14.6917 14.1198 14.5333 14.1198 14.3ZM14.1198 11.55C14.1198 11.45 14.1534 11.3542 14.2207 11.2625C14.2879 11.1708 14.3636 11.1083 14.4476 11.075C14.9519 10.8917 15.4688 10.75 15.9983 10.65C16.5278 10.55 17.0783 10.5 17.6498 10.5C18.0196 10.5 18.381 10.5208 18.734 10.5625C19.087 10.6042 19.4316 10.6667 19.7677 10.75C19.8686 10.7833 19.9611 10.8458 20.0451 10.9375C20.1291 11.0292 20.1712 11.1333 20.1712 11.25C20.1712 11.4333 20.1081 11.575 19.9821 11.675C19.856 11.775 19.7005 11.8 19.5156 11.75C19.2298 11.6667 18.9315 11.6042 18.6205 11.5625C18.3095 11.5208 17.986 11.5 17.6498 11.5C17.1623 11.5 16.6916 11.5458 16.2378 11.6375C15.7839 11.7292 15.3385 11.8667 14.9014 12.05C14.6661 12.1333 14.477 12.1292 14.3341 12.0375C14.1913 11.9458 14.1198 11.7833 14.1198 11.55ZM12.9095 17.75C13.75 17.3333 14.5737 17.0208 15.3805 16.8125C16.1874 16.6042 17.0446 16.5 17.9523 16.5C18.5911 16.5 19.2509 16.55 19.9316 16.65C20.6124 16.75 21.1965 16.8833 21.684 17.05V6.325C21.1125 6.04167 20.5074 5.83333 19.8686 5.7C19.2298 5.56667 18.5911 5.5 17.9523 5.5C17.0446 5.5 16.1663 5.6375 15.3175 5.9125C14.4686 6.1875 13.666 6.575 12.9095 7.075V17.75ZM12.1531 19.725C12.0187 19.725 11.8968 19.7125 11.7875 19.6875C11.6783 19.6625 11.5816 19.6167 11.4976 19.55C10.7075 19.0667 9.86706 18.6917 8.97616 18.425C8.08527 18.1583 7.17757 18.025 6.25305 18.025C5.63111 18.025 5.02597 18.1 4.43765 18.25C3.84932 18.4 3.26099 18.5833 2.67267 18.8C2.28605 18.9833 1.91205 18.9583 1.55065 18.725C1.18925 18.4917 1.00854 18.1583 1.00854 17.725V6.15C1.00854 5.9 1.06738 5.67083 1.18504 5.4625C1.30271 5.25417 1.47921 5.09167 1.71454 4.975C2.42053 4.64167 3.15594 4.39583 3.92076 4.2375C4.68558 4.07917 5.46301 4 6.25305 4C7.31204 4 8.34161 4.14167 9.34177 4.425C10.3419 4.70833 11.279 5.14167 12.1531 5.725C13.0104 5.14167 13.9307 4.70833 14.9141 4.425C15.8974 4.14167 16.9102 4 17.9523 4C18.7424 4 19.5156 4.07917 20.272 4.2375C21.0284 4.39583 21.7597 4.64167 22.4656 4.975C22.701 5.09167 22.8817 5.25417 23.0077 5.4625C23.1338 5.67083 23.1968 5.9 23.1968 6.15V17.725C23.1968 18.1917 23.0077 18.5458 22.6295 18.7875C22.2513 19.0292 21.8773 19.0333 21.5075 18.8C20.936 18.5667 20.3561 18.3792 19.7677 18.2375C19.1794 18.0958 18.5743 18.025 17.9523 18.025C17.0446 18.025 16.1537 18.1583 15.2797 18.425C14.4056 18.6917 13.5819 19.0667 12.8087 19.55C12.7246 19.6167 12.628 19.6625 12.5187 19.6875C12.4095 19.7125 12.2876 19.725 12.1531 19.725Z" fill="url(#paint0_linear_1_86)"/>
<defs>
<linearGradient id="paint0_linear_1_86" x1="12.1027" y1="4" x2="12.1027" y2="19.725" gradientUnits="userSpaceOnUse">
<stop stop-color="#5FE6B6"/>
<stop offset="1" stop-color="#09CE93"/>
</linearGradient>
</defs>
</svg>
