<svg width="98" height="42" viewBox="0 0 98 42" fill="none" xmlns="http://www.w3.org/2000/svg">
<path d="M7.992 7.736V34.76H20.952L20.136 41H0.12V7.736H7.992ZM31.7006 15.512V41H24.1166V15.512H31.7006ZM31.3646 0.919998L34.3406 6.584L23.0126 11.144L20.9006 7.256L31.3646 0.919998ZM59.5995 15.512L51.5835 41H42.6075L34.3995 15.512H42.6555L47.1675 35.24L51.8715 15.512H59.5995ZM69.8569 15.512V41H62.2729V15.512H69.8569ZM66.0169 2.072C67.3289 2.072 68.4009 2.488 69.2329 3.32C70.0969 4.12 70.5289 5.144 70.5289 6.392C70.5289 7.64 70.0969 8.68 69.2329 9.512C68.4009 10.312 67.3289 10.712 66.0169 10.712C64.7049 10.712 63.6329 10.312 62.8009 9.512C61.9689 8.68 61.5529 7.64 61.5529 6.392C61.5529 5.144 61.9689 4.12 62.8009 3.32C63.6329 2.488 64.7049 2.072 66.0169 2.072ZM96.0758 33.608C96.0758 34.568 96.2038 35.272 96.4598 35.72C96.7478 36.168 97.1958 36.504 97.8038 36.728L96.2198 41.672C94.6518 41.544 93.3718 41.208 92.3798 40.664C91.3878 40.088 90.6198 39.192 90.0758 37.976C88.4118 40.536 85.8518 41.816 82.3958 41.816C79.8678 41.816 77.8518 41.08 76.3478 39.608C74.8438 38.136 74.0918 36.216 74.0918 33.848C74.0918 31.064 75.1158 28.936 77.1638 27.464C79.2118 25.992 82.1718 25.256 86.0438 25.256H88.6358V24.152C88.6358 22.648 88.3158 21.624 87.6758 21.08C87.0358 20.504 85.9158 20.216 84.3158 20.216C83.4838 20.216 82.4758 20.344 81.2918 20.6C80.1078 20.824 78.8918 21.144 77.6438 21.56L75.9158 16.568C77.5158 15.96 79.1478 15.496 80.8118 15.176C82.5078 14.856 84.0758 14.696 85.5157 14.696C89.1638 14.696 91.8358 15.448 93.5318 16.952C95.2278 18.456 96.0758 20.712 96.0758 23.72V33.608ZM84.6038 36.392C86.3318 36.392 87.6758 35.576 88.6358 33.944V29.432H86.7638C85.0358 29.432 83.7398 29.736 82.8758 30.344C82.0438 30.952 81.6278 31.896 81.6278 33.176C81.6278 34.2 81.8838 35 82.3958 35.576C82.9398 36.12 83.6758 36.392 84.6038 36.392Z" fill="#141414"/>
</svg>
